<?xml version="1.0" encoding="utf-8"?>
<!-- Generator: Adobe Illustrator 21.0.2, SVG Export Plug-In . SVG Version: 6.00 Build 0)  -->
<svg version="1.1" id="Layer_1" xmlns="http://www.w3.org/2000/svg" xmlns:xlink="http://www.w3.org/1999/xlink" x="0px" y="0px"
	 viewBox="0 0 100 100" style="enable-background:new 0 0 100 100;" xml:space="preserve">
<g>
	<path d="M88.2,41.1L75,50V31.9c0-1-0.8-1.8-1.8-1.8H27.3c-1,0-1.8,0.8-1.8,1.8V50l-13.1-9c-0.8-0.5-1.9-0.3-2.5,0.5
		s-0.3,1.9,0.5,2.5l33,22.5c1.9,1.3,4.4,2,6.8,2c2.5,0,4.9-0.7,6.8-2L90,44c0.8-0.5,1-1.6,0.5-2.5C90.1,40.7,89,40.5,88.2,41.1z
		 M55.1,63.6c-2.6,1.8-7.1,1.8-9.7,0L28.8,52.3c0.2-0.3,0.3-0.6,0.3-0.9V33.7h42.4v17.7c0,0.3,0.1,0.6,0.3,0.9L55.1,63.6z"/>
	<path d="M95.3,34.3L57,4.8c-1.8-1.4-4.2-2.1-6.7-2.1s-4.9,0.8-6.7,2.1L5.2,34.3c-1.5,1.2-2.7,3.6-2.7,5.6v48.6c0,4.9,4,8.8,8.8,8.8
		h77.8c4.9,0,8.8-4,8.8-8.8V39.9C98,37.9,96.8,35.5,95.3,34.3z M94.5,88.5c0,2.9-2.4,5.3-5.3,5.3H11.4c-2.9,0-5.3-2.4-5.3-5.3V39.9
		c0-0.9,0.6-2.3,1.3-2.8L45.8,7.6c1.2-0.9,2.8-1.4,4.5-1.4s3.4,0.5,4.5,1.4l38.3,29.5c0.7,0.5,1.3,1.9,1.3,2.8L94.5,88.5L94.5,88.5z
		"/>
	<path d="M62.6,40.8H37.9c-1,0-1.8,0.8-1.8,1.8s0.8,1.8,1.8,1.8h24.7c1,0,1.8-0.8,1.8-1.8S63.6,40.8,62.6,40.8z"/>
	<path d="M62.6,47.8H37.9c-1,0-1.8,0.8-1.8,1.8s0.8,1.8,1.8,1.8h24.7c1,0,1.8-0.8,1.8-1.8S63.6,47.8,62.6,47.8z"/>
</g>
</svg>
