<?xml version="1.0" encoding="utf-8"?>
<!-- Generator: Adobe Illustrator 21.0.2, SVG Export Plug-In . SVG Version: 6.00 Build 0)  -->
<svg version="1.1" id="Layer_1" xmlns="http://www.w3.org/2000/svg" xmlns:xlink="http://www.w3.org/1999/xlink" x="0px" y="0px"
	 viewBox="0 0 118 100" style="enable-background:new 0 0 118 100;" xml:space="preserve">
<style type="text/css">
	.st0{fill:#3C3D3D;}
</style>
<path class="st0" d="M4.7,84.5c10.1,6.4,22,10.2,34.8,10.2c42.2,0,66-35.6,64.6-67.6c4.4-3.2,8.3-7.2,11.3-11.8
	c-4.1,1.8-8.5,3-13,3.6c4.7-2.8,8.3-7.3,10-12.6c-4.4,2.6-9.3,4.5-14.4,5.5c-4.1-4.4-10-7.2-16.6-7.2c-14.7,0-25.4,13.7-22.1,27.9
	c-18.9-0.9-35.6-10-46.8-23.7c-6,10.2-3.1,23.6,7,30.3c-3.7-0.1-7.2-1.1-10.3-2.8C8.9,46.9,16.4,56.8,27.4,59
	c-3.2,0.9-6.7,1.1-10.3,0.4c2.9,9,11.3,15.6,21.2,15.8C28.8,82.6,16.8,86,4.7,84.5z"/>
</svg>
